<svg width="77" height="28" viewBox="0 0 77 28" fill="none" xmlns="http://www.w3.org/2000/svg">
<g clip-path="url(#clip0_3813_1180)">
<path d="M28 14C28 21.7313 21.7313 28 14 28C6.26866 28 0 21.7313 0 14C0 6.26866 6.26866 0 14 0C21.7313 0 28 6.26866 28 14Z" fill="#FF621C"/>
<path d="M3.98545 6.45216C4.52058 10.7842 5.91192 14.9225 8.03714 18.3473C8.46015 18.9436 8.91374 18.9436 9.05644 18.5767C9.22462 18.0976 9.34184 17.4452 9.42338 17.0732C10.1318 14.525 11.039 11.778 12.3386 9.22974C13.103 7.73138 14.0102 6.31456 15.055 5.00986C16.5075 3.24139 18.6123 1.50349 20.4776 1.59523C20.2432 1.47291 20.0087 1.36079 19.7692 1.24867C17.5675 1.18751 14.6473 3.6644 13.2457 5.71827C12.9349 6.17186 12.624 6.65093 12.3386 7.10451C10.2439 10.5599 9.05134 13.8726 8.34293 16.8184C6.39098 13.8471 5.19841 9.96363 4.7754 7.2727C4.42884 5.06592 4.52568 4.09759 4.72954 3.5115C4.4951 3.72046 4.26576 3.93451 4.04151 4.15875C3.9192 4.74994 3.93449 5.61634 3.98035 6.45216" fill="white"/>
<path d="M8.71502 21.66C9.08196 21.8282 9.70883 21.8842 10.0758 21.6294C10.4427 21.3746 10.8301 20.7477 10.9982 20.2636C11.3397 19.1882 11.462 18.3677 11.7729 17.2923C11.9717 16.6145 12.1398 15.9316 12.3386 15.3098C13.3579 12.1092 14.3772 9.84128 15.794 7.49181C17.3331 4.86713 20.1515 2.56862 22.1799 2.63997C21.8792 2.42082 21.5683 2.21187 21.2523 2.0182C19.8049 1.96214 16.9203 3.64398 14.8868 6.75792C13.9236 8.2308 13.0725 9.87186 12.3386 11.5741C11.3499 13.9236 10.5548 16.4463 9.93307 18.9385C9.73431 19.6724 9.56613 20.0138 9.05648 20.126C6.61018 20.5235 2.57887 8.25628 3.4045 4.84674C3.15987 5.12705 2.93053 5.41755 2.70628 5.71824C2.23231 8.82199 5.35645 19.9985 8.71502 21.6549" fill="white"/>
<path d="M2.85408 14.8614C3.58797 17.4657 6.47767 25.3703 10.9269 23.984C11.4926 23.8159 11.9768 23.5304 12.3437 23.1329C12.7973 22.6793 13.1082 22.027 13.3324 21.1759C14.0969 18.0619 14.8359 14.7492 15.8807 12.1959C16.8999 9.64767 18.485 6.2789 21.3186 4.35244C21.8486 4.01607 22.8017 3.64403 23.4591 3.6797C23.2654 3.50133 23.0667 3.33314 22.8679 3.16496C22.134 3.06813 20.9516 3.44526 20.1056 4.09761C17.3586 6.19226 15.6564 9.28072 14.2702 13.0215C13.4751 15.0907 12.94 17.2975 12.3437 19.4227C12.2571 19.7896 12.1449 20.1617 12.0328 20.5286C11.7219 21.6346 11.1256 22.399 10.4733 22.6233C6.79365 24.0401 4.1282 16.6196 3.50643 14.525C2.99169 12.8839 1.93672 8.28691 2.26289 6.37573C2.06922 6.67643 1.88065 6.98221 1.71247 7.2931C1.56977 8.60289 1.97239 11.8239 2.85918 14.8665" fill="white"/>
<path d="M39.9258 10.5141L35.7365 3.61853H34.4725V14.683H36.292V7.59887L39.2938 12.5323H40.5577L43.5595 7.59887V14.683H45.379V3.61853H44.1151L39.9258 10.5141Z" fill="white"/>
<path d="M51.51 3.61853L46.9589 14.683H48.8853L49.7364 12.5475H54.4914L55.3324 14.683H57.2945L52.7739 3.61853H51.51ZM50.3684 10.9676L52.1267 6.55919L53.8697 10.9676H50.3684Z" fill="white"/>
<path d="M67.7219 14.683L63.8435 8.92905L67.5333 3.61853H65.4947L62.6815 7.72628L59.7918 3.61853H57.6411L61.4889 9.0055L57.4525 14.683H59.4911L62.6458 10.1981L65.6069 14.683H67.7219Z" fill="white"/>
<path d="M69.1183 4.22501V3.61853H71.9672V4.22501H70.9072V7.08923H70.1835V4.22501H69.1234H69.1183Z" fill="white"/>
<path d="M72.4361 3.61853H73.3381L74.2912 5.94762H74.332L75.285 3.61853H76.1871V7.08923H75.4736V4.83149H75.443L74.546 7.07394H74.0618L73.1649 4.82639H73.1343V7.09432H72.4208V3.62363L72.4361 3.61853Z" fill="white"/>
<path d="M38.881 22.6742C38.881 22.9698 38.83 23.2501 38.7281 23.5151C38.6262 23.7802 38.4784 24.0146 38.2898 24.2235C38.1012 24.4274 37.8821 24.5905 37.6272 24.7128C37.3724 24.83 37.0972 24.8912 36.7965 24.8912C36.5519 24.8912 36.3022 24.83 36.0524 24.7026C35.8027 24.5752 35.6039 24.407 35.4511 24.1879L35.4052 24.5089C35.3899 24.616 35.3542 24.7128 35.2982 24.7893C35.2421 24.8657 35.1606 24.9065 35.0535 24.9065C34.9465 24.9065 34.8497 24.8657 34.7732 24.7893C34.6968 24.7128 34.656 24.616 34.656 24.5089V19.4227C34.656 19.3156 34.6968 19.2188 34.7732 19.1424C34.8497 19.0659 34.9465 19.0251 35.0535 19.0251C35.1606 19.0251 35.2574 19.0659 35.3338 19.1424C35.4103 19.2188 35.4511 19.3156 35.4511 19.4227V21.0994C35.6243 20.9006 35.818 20.7427 36.0321 20.6254C36.2461 20.5082 36.4907 20.4522 36.7659 20.4522C37.0412 20.4522 37.3011 20.5031 37.5508 20.6051C37.8056 20.707 38.0248 20.8548 38.2184 21.0433C38.4376 21.2625 38.6058 21.5122 38.7128 21.7976C38.8249 22.083 38.8759 22.3735 38.8759 22.6742H38.881ZM36.8016 24.091C37.0462 24.091 37.2705 24.0248 37.4642 23.8923C37.6578 23.7598 37.8107 23.5865 37.9228 23.3673C38.035 23.1533 38.091 22.9188 38.091 22.6742C38.091 22.4296 38.035 22.1951 37.9228 21.976C37.8107 21.7569 37.6527 21.5785 37.4591 21.4409C37.2603 21.3033 37.0361 21.237 36.7863 21.237C36.5366 21.237 36.3073 21.3033 36.1136 21.4307C35.9148 21.5581 35.7619 21.7314 35.6498 21.9505C35.5377 22.1697 35.4816 22.399 35.4816 22.6538C35.4816 22.8373 35.5122 23.0208 35.5785 23.1992C35.6447 23.3775 35.7365 23.5304 35.8537 23.6629C35.9709 23.7903 36.1187 23.8974 36.2869 23.9738C36.4551 24.0503 36.6283 24.091 36.8016 24.091Z" fill="white"/>
<path d="M39.5793 20.4369C39.6557 20.4369 39.7271 20.4573 39.7984 20.5032C39.8647 20.549 39.9156 20.6051 39.9462 20.6714L41.3019 23.7496L42.4588 20.6968C42.4893 20.6255 42.5352 20.5643 42.6015 20.5185C42.6677 20.4726 42.7442 20.4471 42.8257 20.4471C42.9327 20.4471 43.0296 20.4879 43.106 20.5643C43.1825 20.6408 43.2232 20.7376 43.2232 20.8446C43.2232 20.9007 43.213 20.9517 43.1927 20.9975L41.7249 24.8199C41.7198 24.8556 41.7096 24.8861 41.6994 24.9116C41.6841 24.9371 41.6739 24.9626 41.6586 24.983L41.4344 25.5385C41.3783 25.6761 41.3121 25.8239 41.2356 25.9768C41.1592 26.1348 41.0521 26.2775 40.9145 26.4151C40.7871 26.5527 40.624 26.6648 40.4406 26.7565C40.252 26.8483 40.0583 26.8941 39.8545 26.8941C39.7423 26.8941 39.6506 26.8534 39.5742 26.7718C39.4977 26.6903 39.4569 26.5935 39.4569 26.4864C39.4569 26.3794 39.4926 26.2877 39.564 26.2112C39.6353 26.1348 39.7271 26.094 39.829 26.0889C40.0634 26.0736 40.2418 25.9819 40.3692 25.8137C40.4966 25.6455 40.6036 25.4518 40.6954 25.2276L40.884 24.7434L39.2123 20.9924C39.1868 20.9364 39.1766 20.8803 39.1766 20.8192C39.1766 20.7121 39.2174 20.6153 39.2939 20.5388C39.3703 20.4624 39.4671 20.4216 39.5742 20.4216L39.5793 20.4369Z" fill="white"/>
<path d="M46.2861 19.4839C46.2861 19.3922 46.3269 19.3055 46.4034 19.2291C46.4798 19.1526 46.5664 19.1118 46.6633 19.1118C46.8518 19.1118 46.9843 19.1934 47.0506 19.3514L48.9771 23.7242L50.7099 19.3055C50.771 19.1373 50.9035 19.0558 51.1023 19.0558C51.1991 19.0558 51.2909 19.0915 51.3673 19.1679C51.4438 19.2444 51.4845 19.331 51.4845 19.4227C51.4845 19.4992 51.4743 19.5603 51.459 19.6062L49.3797 24.8811C49.3542 24.9473 49.3083 25.0085 49.237 25.0594C49.1707 25.1104 49.0943 25.1359 49.0076 25.1359C48.8395 25.1359 48.7171 25.0543 48.6458 24.8963L46.332 19.6725C46.3065 19.6266 46.2963 19.5603 46.2963 19.4788L46.2861 19.4839Z" fill="white"/>
<path d="M53.7626 20.4573C54.0684 20.4573 54.3538 20.5134 54.6189 20.6306C54.8839 20.7478 55.1132 20.9109 55.312 21.1148C55.5107 21.3186 55.6687 21.5582 55.7808 21.8283C55.893 22.0984 55.949 22.3838 55.949 22.6845C55.949 22.9852 55.893 23.2655 55.7758 23.5305C55.6636 23.7955 55.5056 24.03 55.3018 24.2338C55.103 24.4377 54.8686 24.5957 54.6036 24.7129C54.3385 24.8301 54.0582 24.8862 53.7576 24.8862C53.4569 24.8862 53.1817 24.8301 52.9166 24.7129C52.6516 24.6008 52.4223 24.4428 52.2184 24.2389C52.0146 24.0351 51.8617 23.8006 51.7444 23.5356C51.6323 23.2706 51.5712 22.9852 51.5712 22.6794C51.5712 22.3736 51.6272 22.0933 51.7444 21.8232C51.8617 21.5531 52.0146 21.3186 52.2184 21.1097C52.4223 20.9007 52.6516 20.7427 52.9115 20.6255C53.1766 20.5083 53.4569 20.4471 53.7576 20.4471L53.7626 20.4573ZM52.3815 22.6998C52.3815 22.9597 52.4427 23.1941 52.5701 23.4031C52.6975 23.6121 52.8657 23.7802 53.0746 23.9076C53.2836 24.0351 53.5129 24.0962 53.7626 24.0962C54.0124 24.0962 54.2468 24.03 54.4558 23.9026C54.6647 23.7751 54.8278 23.6019 54.9552 23.3929C55.0826 23.1839 55.1387 22.9495 55.1387 22.6947C55.1387 22.4399 55.0775 22.2003 54.9552 21.9812C54.8329 21.7671 54.6698 21.5938 54.4609 21.4613C54.2519 21.3339 54.0175 21.2677 53.7576 21.2677C53.4976 21.2677 53.2581 21.3339 53.0542 21.4664C52.8453 21.5989 52.6822 21.7722 52.565 21.9863C52.4427 22.2003 52.3815 22.4399 52.3815 22.6998Z" fill="white"/>
<path d="M60.7703 22.6742C60.7703 22.9698 60.7193 23.2501 60.6174 23.5151C60.5154 23.7802 60.3676 24.0146 60.1791 24.2235C59.9905 24.4274 59.7714 24.5905 59.5165 24.7128C59.2617 24.83 58.9865 24.8912 58.6858 24.8912C58.4412 24.8912 58.1915 24.83 57.9417 24.7026C57.692 24.5752 57.4932 24.407 57.3403 24.1879L57.2945 24.5089C57.2792 24.616 57.2435 24.7128 57.1874 24.7893C57.1314 24.8657 57.0498 24.9065 56.9428 24.9065C56.8358 24.9065 56.739 24.8657 56.6625 24.7893C56.5861 24.7128 56.5453 24.616 56.5453 24.5089V19.4227C56.5453 19.3156 56.5861 19.2188 56.6625 19.1424C56.739 19.0659 56.8358 19.0251 56.9428 19.0251C57.0498 19.0251 57.1467 19.0659 57.2231 19.1424C57.2996 19.2188 57.3403 19.3156 57.3403 19.4227V21.0994C57.5136 20.9006 57.7073 20.7427 57.9213 20.6254C58.1354 20.5082 58.38 20.4522 58.6552 20.4522C58.9304 20.4522 59.1904 20.5031 59.4401 20.6051C59.6949 20.707 59.9141 20.8548 60.1077 21.0433C60.3269 21.2625 60.4951 21.5122 60.6021 21.7976C60.7142 22.083 60.7652 22.3735 60.7652 22.6742H60.7703ZM58.6909 24.091C58.9355 24.091 59.1598 24.0248 59.3534 23.8923C59.5471 23.7598 59.7 23.5865 59.8121 23.3673C59.9242 23.1533 59.9803 22.9188 59.9803 22.6742C59.9803 22.4296 59.9242 22.1951 59.8121 21.976C59.7 21.7569 59.542 21.5785 59.3483 21.4409C59.1496 21.3033 58.9253 21.237 58.6756 21.237C58.4259 21.237 58.1965 21.3033 58.0029 21.4307C57.8041 21.5581 57.6512 21.7314 57.5391 21.9505C57.427 22.1697 57.3709 22.399 57.3709 22.6538C57.3709 22.8373 57.4015 23.0208 57.4678 23.1992C57.534 23.3775 57.6257 23.5304 57.743 23.6629C57.8602 23.7903 58.008 23.8974 58.1762 23.9738C58.3443 24.0503 58.5176 24.091 58.6909 24.091Z" fill="white"/>
<path d="M61.3462 20.7988C61.3462 20.6969 61.3869 20.6153 61.4736 20.5542C61.5602 20.493 61.6418 20.4573 61.7182 20.4573C61.8354 20.4573 61.9374 20.493 62.0189 20.5593C62.1004 20.6306 62.1412 20.7173 62.1412 20.8345L62.1514 24.5294C62.1514 24.6365 62.1106 24.7282 62.0342 24.7995C61.9577 24.8709 61.8609 24.9117 61.7539 24.9117C61.6469 24.9117 61.55 24.876 61.4685 24.7995C61.392 24.7231 61.3513 24.6314 61.3513 24.5294L61.3411 20.8039L61.3462 20.7988ZM61.7743 20.0496C61.6519 20.0496 61.5551 20.014 61.4736 19.9375C61.3971 19.8611 61.3564 19.7693 61.3564 19.6572L61.3462 19.3565C61.3462 19.2546 61.392 19.173 61.4838 19.1119C61.5755 19.0507 61.6621 19.0201 61.7437 19.0201C61.8558 19.0201 61.9475 19.0609 62.024 19.1374C62.1004 19.2138 62.1361 19.3055 62.1412 19.4177V19.6572C62.1412 19.7591 62.1106 19.856 62.0393 19.9375C61.9679 20.019 61.8813 20.0598 61.7743 20.0598V20.0496Z" fill="white"/>
<path d="M63.288 19.0099C63.4154 19.0099 63.5173 19.0507 63.5938 19.1373C63.6702 19.2188 63.7059 19.3106 63.7059 19.4125V24.5447C63.7059 24.6517 63.6651 24.7383 63.5785 24.7995C63.497 24.8657 63.4103 24.8963 63.3288 24.8963C63.2166 24.8963 63.1147 24.8606 63.0332 24.7842C62.9516 24.7077 62.9058 24.616 62.9058 24.4988V19.4125C62.9058 19.3106 62.9414 19.2188 63.0179 19.1373C63.0892 19.0558 63.181 19.015 63.288 19.015V19.0099Z" fill="white"/>
<path d="M66.4018 20.4725C66.7535 20.4725 67.0797 20.5592 67.3753 20.7376C67.6709 20.9108 67.9053 21.1504 68.0888 21.446C68.2672 21.7416 68.3589 22.0728 68.3589 22.4296C68.3589 22.506 68.3589 22.5825 68.3487 22.6589C68.3385 22.7558 68.2926 22.8424 68.2162 22.9086C68.1397 22.9749 68.048 23.0106 67.9512 23.0106H65.1685C65.2144 23.2042 65.2959 23.3826 65.4233 23.5508C65.5456 23.719 65.6985 23.8515 65.8769 23.9585C66.0553 24.0655 66.254 24.1114 66.463 24.1114C66.6923 24.1114 66.8962 24.0554 67.0746 23.9432C67.253 23.8311 67.3957 23.7037 67.4976 23.5559C67.5282 23.5049 67.5791 23.4642 67.6403 23.4285C67.7065 23.3928 67.7677 23.3775 67.8238 23.3775C67.9308 23.3775 68.0276 23.4183 68.1041 23.4947C68.1805 23.5763 68.2213 23.668 68.2213 23.7801C68.2213 23.8668 68.1958 23.9381 68.1499 24.0044C67.9868 24.2439 67.7575 24.458 67.4721 24.6313C67.1816 24.8096 66.8503 24.8963 66.4681 24.8963C66.1623 24.8963 65.8769 24.8351 65.617 24.7179C65.3571 24.6007 65.1277 24.4325 64.9341 24.2286C64.7404 24.0197 64.5875 23.7852 64.4805 23.5151C64.3734 23.245 64.3174 22.9596 64.3174 22.6589C64.3174 22.3582 64.3684 22.0932 64.4754 21.8333C64.5824 21.5734 64.7302 21.3389 64.9188 21.1351C65.1073 20.9312 65.3316 20.7681 65.5813 20.6509C65.831 20.5337 66.1062 20.4725 66.3916 20.4725H66.4018ZM67.5333 22.2053C67.4823 21.9454 67.3498 21.7212 67.1408 21.5377C66.9319 21.3542 66.6821 21.2625 66.4018 21.2625C66.1215 21.2625 65.8565 21.3593 65.6374 21.5479C65.4131 21.7365 65.2653 21.9556 65.1889 22.2104H67.5333V22.2053Z" fill="white"/>
</g>
<defs>
<clipPath id="clip0_3813_1180">
<rect width="76.1973" height="28" fill="white"/>
</clipPath>
</defs>
</svg>
